<?xml version="1.0" standalone="no"?>
<!DOCTYPE svg PUBLIC "-//W3C//DTD SVG 1.1//EN" "http://www.w3.org/Graphics/SVG/1.1/DTD/svg11.dtd" >
<svg xmlns="http://www.w3.org/2000/svg">
<metadata>Generated by IcoMoon</metadata>
<defs>
<font id="icomoon" horiz-adv-x="1024">
<font-face units-per-em="1024" ascent="960" descent="-64" />
<missing-glyph horiz-adv-x="1024" />
<glyph unicode="&#x20;" horiz-adv-x="512" d="" />
<glyph unicode="&#xe900;" glyph-name="custom-icons-20" d="M370.347-29.867c-24.519 0-44.362 19.843-44.362 44.373v133.12h-177.505c-49.015 0-88.747 39.743-88.747 88.758v532.469c0 49.22 39.959 88.747 88.747 88.747h709.973c49.015 0 88.747-39.731 88.747-88.747v-532.48c0-49.015-39.731-88.758-88.747-88.758h-270.666l-164.193-164.614c-8.875-8.442-19.968-12.868-31.061-12.868v0h-22.187zM414.72 236.373v-136.681l136.67 136.681h307.063v532.48h-709.973v-532.48h266.24z" />
<glyph unicode="&#xe901;" glyph-name="custom-icons-21" d="M875.201 642.492c-1.104 0.501-1.638 0.956-2.15 0.956-34.918 0.137-69.814 0.33-104.732 0.034-2.162-0.034-5.825-3.789-6.281-6.269-5.234-29.491-9.262-59.244-15.064-88.622-14.12-71.908-33.428-142.245-67.118-207.861-0.478-0.922-0.569-2.048-0.91-3.482 103.595 25.975 200.841 177.527 196.255 305.243zM152.61 643.777c1.968-71.509 22.062-157.867 80.657-224.893 31.801-36.341 70.076-63.59 115.985-82.773-8.841 20.298-17.499 38.514-24.826 57.23-30.458 77.972-46.524 159.471-58.061 241.983-0.944 6.622-2.844 8.704-9.523 8.602-23.563-0.398-47.138-0.148-70.713-0.148h-33.519zM538.59 217.407c0-21.458-0.592-41.961 0.216-62.418 0.603-15.838 9.705-28.103 20.366-38.992 25.509-26.044 57.128-42.78 89.611-58.095 8.829-4.164 18.011-7.805 26.362-12.766 12.732-7.589 16.805-15.667 14.268-24.974-3.277-11.992-12.8-18.716-27.147-18.751-98.907-0.284-197.814-0.603-296.721-0.637-5.541 0-11.799 1.195-16.555 3.903-13.824 7.919-15.212 24.394-2.89 34.327 6.315 5.109 13.71 9.193 21.174 12.527 29.4 13.21 57.958 27.841 83.251 48.026 8.101 6.44 15.599 13.778 22.619 21.413 11.446 12.447 16.942 27.227 16.464 44.396-0.466 17.112-0.114 34.247-0.114 51.837-24.906 4.972-47.241 14.461-66.958 29.616-0.967 0.762-2.139 1.32-2.924 2.23-15.098 17.317-35.726 23.45-56.695 30.709-142.529 49.345-226.748 149.038-253.030 297.518-6.702 37.786-8.226 75.981-7.202 115.439h155.762c-2.924 44.066-5.746 86.972-8.624 130.753h527.997c-2.765-42.985-5.552-86.084-8.42-130.355h155.637c0-15.747 0.421-30.333-0.091-44.908-1.855-52.622-10.035-104.118-29.286-153.372-40.357-103.14-114.449-172.055-217.259-210.227-28.092-10.445-55.489-19.661-78.245-40.778-16.452-15.292-38.525-22.084-61.565-26.419z" />
<glyph unicode="&#xe902;" glyph-name="custom-icons-22" d="M387.493 851.911c166.889 0 302.171-135.282 302.171-302.16 0-74.82-27.409-143.644-72.533-196.665l12.561-12.538h36.727l232.425-232.414-69.734-69.734-232.425 232.437v36.727l-12.538 12.584c-53.020-45.136-121.845-72.556-196.665-72.556-166.878 0-302.16 135.282-302.16 302.171 0.011 166.866 135.293 302.148 302.171 302.148v0zM387.493 758.943c-116.213 0-209.192-92.979-209.192-209.192 0-116.224 92.979-209.203 209.192-209.203 116.224 0 209.203 92.979 209.203 209.203-0.011 116.213-92.991 209.192-209.203 209.192v0z" />
<glyph unicode="&#xe903;" glyph-name="custom-icons-23" d="M117.806 681.244h782.78v-84.48h-782.78v84.48zM117.806 287.027h782.78v-84.48h-782.78v84.48zM117.806 484.136h782.78v-84.48h-782.78v84.48z" />
<glyph unicode="&#xe904;" glyph-name="custom-icons-11" d="M941.477 594.045l-311.785 26.897-121.719 287.232c-1.718 4.062-5.734 6.724-10.172 6.724s-8.431-2.651-10.172-6.724l-121.697-287.232-311.774-26.897c-4.426-0.375-8.192-3.356-9.557-7.578-1.377-4.221-0.091-8.841 3.265-11.753l236.373-204.857-70.793-304.617c-1.001-4.324 0.671-8.818 4.255-11.435 1.934-1.388 4.21-2.116 6.497-2.116 1.957 0 3.937 0.535 5.689 1.582l267.924 161.496 267.981-161.496c3.8-2.276 8.613-2.071 12.186 0.535 3.595 2.606 5.257 7.111 4.278 11.435l-70.918 304.617 236.407 204.857c3.368 2.913 4.654 7.532 3.277 11.753-1.365 4.221-5.131 7.202-9.546 7.578z" />
<glyph unicode="&#xe905;" glyph-name="custom-icons-12" d="M958.544 599.734l-311.785 26.897-121.719 287.232c-1.718 4.062-5.734 6.724-10.172 6.724s-8.431-2.651-10.172-6.724l-121.697-287.232-311.774-26.897c-4.426-0.375-8.192-3.356-9.557-7.578-1.377-4.221-0.091-8.841 3.265-11.753l236.373-204.857-70.793-304.617c-1.001-4.324 0.671-8.818 4.255-11.435 1.934-1.388 4.21-2.116 6.497-2.116 1.957 0 3.937 0.535 5.689 1.582l267.924 161.496 267.981-161.496c3.8-2.276 8.613-2.071 12.186 0.535 3.595 2.606 5.257 7.111 4.278 11.435l-70.918 304.617 236.407 204.857c3.368 2.913 4.654 7.532 3.277 11.753-1.365 4.221-5.131 7.202-9.546 7.578zM403.069 402.91c0.933 3.994-0.421 8.181-3.516 10.854l-127.283 110.455 167.89 14.404c4.073 0.353 7.634 2.935 9.239 6.69l65.49 154.556 65.49-154.556c1.593-3.755 5.143-6.337 9.227-6.69l167.913-14.404-127.306-110.455c-3.095-2.674-4.46-6.861-3.516-10.843l38.161-163.92-144.293 86.835c-1.741 1.058-3.721 1.582-5.689 1.582s-3.948-0.523-5.7-1.582l-144.338-86.835 38.229 163.908z" />
<glyph unicode="&#xe906;" glyph-name="custom-icons-13" d="M957.645 727.063c-32.347-14.461-67.277-24.11-103.799-28.467 37.399 22.426 65.946 57.97 79.542 100.215-34.93-20.673-73.682-35.851-114.836-43.975-33.041 35.203-80.043 57.105-132.028 57.105-99.84 0-180.747-81.089-180.747-181.123 0-14.12 1.536-27.898 4.642-41.199-150.289 7.555-283.534 79.69-372.702 189.372-15.497-26.772-24.439-57.97-24.439-91.079 0-62.76 31.835-118.329 80.384-150.744-29.628 0.865-57.515 9.17-81.954 22.585v-2.219c0-87.825 62.339-161.121 145.124-177.675-15.144-4.13-31.164-6.394-47.673-6.394-11.708 0-22.892 1.206-34.088 3.3 23.074-71.964 89.862-124.37 168.869-125.929-61.952-48.629-139.776-77.608-224.643-77.608-14.62 0-28.911 0.865-43.213 2.606 80.225-51.621 175.252-81.442 277.333-81.442 332.584 0 514.56 276.161 514.56 515.561 0 7.908-0.171 15.69-0.523 23.461 35.305 25.384 65.934 57.276 90.192 93.65v0z" />
<glyph unicode="&#xe907;" glyph-name="custom-icons-14" d="M513.434 805.581c118.181 0 132.187-0.558 178.642-2.606 43.201-1.968 66.526-9.262 82.091-15.36 20.548-8.044 35.408-17.772 50.79-33.291 15.542-15.679 25.054-30.527 33.178-51.257 6.053-15.667 13.323-39.39 15.201-82.773 2.082-47.058 2.606-61.19 2.606-180.213s-0.523-133.313-2.606-180.19c-1.877-43.588-9.148-67.106-15.201-82.785-7.93-20.719-17.636-35.738-32.996-51.291-15.553-15.656-30.242-25.247-50.802-33.439-15.542-6.087-39.060-13.392-82.079-15.326-46.638-2.128-60.644-2.594-178.642-2.594-118.022 0-132.164 0.466-178.654 2.594-43.201 1.934-66.526 9.239-82.068 15.326-20.582 8.010-35.419 17.783-50.825 33.303-15.542 15.701-25.042 30.504-33.155 51.234-6.042 15.69-13.312 39.401-15.223 82.785-2.059 47.081-2.594 61.167-2.594 180.201 0 119.068 0.535 133.348 2.594 180.258 1.911 43.531 9.182 67.061 15.223 82.762 7.953 20.719 17.613 35.738 32.996 51.211 15.553 15.713 30.242 25.281 50.802 33.485 15.553 6.087 39.049 13.392 82.068 15.36 46.49 2.048 60.484 2.606 178.654 2.606v0zM513.434 885.908c-120.081 0-135.122-0.546-182.283-2.583-47.013-2.139-79.314-9.785-107.315-20.742-29.184-11.548-53.885-26.704-78.438-51.598-24.701-24.747-39.743-49.721-51.143-78.962-10.889-28.399-18.489-60.826-20.571-108.225-2.082-47.753-2.594-62.942-2.594-184.058 0-121.105 0.512-136.294 2.594-183.854 2.082-47.434 9.682-80.043 20.571-108.237 11.401-29.457 26.442-54.409 51.143-79.167 24.542-24.735 49.243-40.061 78.256-51.405 28.183-10.945 60.325-18.648 107.304-20.719 47.184-2.094 62.214-2.628 182.283-2.628s135.134 0.546 182.283 2.628c47.002 2.082 79.292 9.774 107.292 20.719 29.025 11.344 53.737 26.67 78.279 51.405 24.542 24.758 39.743 49.71 50.961 78.973 10.889 28.376 18.5 60.837 20.582 108.225 2.082 47.593 2.594 62.76 2.594 183.888 0 121.116-0.512 136.272-2.594 183.865-2.082 47.388-9.694 79.974-20.582 108.225-10.866 29.605-25.919 54.579-50.608 79.326-24.542 24.747-49.254 40.061-78.268 51.416-28.183 10.957-60.314 18.648-107.304 20.73-47.32 2.23-62.35 2.776-182.443 2.776v0 0zM513.434 668.911c-125.429 0-227.214-102.639-227.214-229.171 0-126.521 101.774-229.171 227.214-229.171s227.203 102.639 227.203 229.171c0 126.544-101.763 229.171-227.203 229.171v0zM513.434 291.078c-81.385 0-147.365 66.606-147.365 148.662 0 82.079 65.98 148.673 147.365 148.673 81.374 0 147.388-66.606 147.388-148.673 0-82.057-66.014-148.662-147.388-148.662v0zM802.679 678.002c0-29.582-23.745-53.532-53.043-53.532s-53.043 23.95-53.043 53.532c0 29.559 23.745 53.51 53.043 53.51s53.043-23.962 53.043-53.51v0z" />
<glyph unicode="&#xe908;" glyph-name="custom-icons-15" d="M376.036-24.178c-24.519 0-44.362 19.843-44.362 44.373v133.12h-177.505c-49.015 0-88.747 39.743-88.747 88.758v532.469c0 49.22 39.959 88.747 88.747 88.747h709.973c49.015 0 88.747-39.731 88.747-88.747v-532.48c0-49.015-39.731-88.758-88.747-88.758h-270.666l-164.193-164.614c-8.875-8.442-19.968-12.868-31.061-12.868v0h-22.187zM420.409 242.062v-136.681l136.67 136.681h307.063v532.48h-709.973v-532.48h266.24zM242.916 641.422h532.48v-88.747h-532.48v88.747zM242.916 463.929h399.36v-88.747h-399.36v88.747z" />
<glyph unicode="&#xe909;" glyph-name="custom-icons-16" d="M480.313 312.604c-85.766 0-155.307 69.507-155.307 155.307s69.541 155.307 155.307 155.307c85.811 0 155.307-69.507 155.307-155.307s-69.495-155.307-155.307-155.307v0zM809.995 424.835c1.809 14.222 3.106 28.433 3.106 43.076s-1.297 29.286-3.106 44.373l93.639 72.317c8.454 6.622 10.615 18.637 5.325 28.388l-88.747 153.554c-5.325 9.751-17.328 13.744-27.079 9.751l-110.467-44.373c-23.086 17.294-47.058 32.381-75.002 43.463l-16.418 117.623c-1.764 10.661-11.093 18.637-22.187 18.637h-177.493c-11.093 0-20.4-7.976-22.187-18.637l-16.418-117.612c-27.955-11.093-51.905-26.18-74.991-43.463l-110.478 44.373c-9.774 3.994-21.754 0-27.079-9.751l-88.747-153.554c-5.757-9.751-3.095-21.766 5.325-28.388l93.628-72.317c-1.775-15.087-3.095-29.73-3.095-44.373s1.32-28.854 3.095-43.076l-93.628-73.626c-8.431-6.622-11.093-18.637-5.325-28.388l88.747-153.554c5.336-9.751 17.306-13.266 27.079-9.751l110.478 44.84c23.074-17.761 47.036-32.836 74.991-43.93l16.418-117.612c1.786-10.672 11.093-18.637 22.187-18.637h177.493c11.105 0 20.423 7.964 22.187 18.637l16.43 117.612c27.944 11.526 51.905 26.18 75.002 43.93l110.467-44.84c9.739-3.516 21.754 0 27.079 9.751l88.747 153.554c5.291 9.751 3.129 21.766-5.325 28.388l-93.65 73.614z" />
<glyph unicode="&#xe90a;" glyph-name="custom-icons-17" d="M869.274 791.393h-723.627c-49.732 0-90.010-40.676-90.010-90.453l-0.444-542.72c0-49.721 40.721-90.442 90.453-90.442h723.627c49.732 0 90.453 40.721 90.453 90.442v542.709c0.011 49.778-40.721 90.465-90.453 90.465v0zM869.274 158.208h-723.627v452.278l361.813-226.133 361.813 226.133v-452.278zM507.472 474.795l-361.813 226.133h723.627l-361.813-226.133z" />
<glyph unicode="&#xe90b;" glyph-name="custom-icons-18" d="M579.698 726.812h141.926v170.678h-141.926c-109.591 0-198.77-89.35-198.77-199.134v-85.333h-113.55v-170.678h113.55v-455.145h170.359v455.145h141.961l28.376 170.678h-170.337v85.333c0 15.428 13.005 28.456 28.41 28.456v0z" />
<glyph unicode="&#xe90c;" glyph-name="custom-icons-19" d="M610.020 258.071l128.887 128.944h-481.326v99.544h481.337l-128.899 128.933 70.679 70.201 248.855-248.912-248.855-248.912-70.679 70.201zM854.926 884.782c54.966 0 99.544-44.578 99.544-99.544v-232.437l-99.544 99.533v132.904h-696.912v-696.912h696.912v132.892l99.544 99.544v-232.448c0-54.966-44.578-99.544-99.544-99.544h-696.912c-55.25 0-99.544 44.783-99.544 99.544v696.923c0 55.273 44.294 99.544 99.544 99.544h696.912z" />
<glyph unicode="&#xe90d;" glyph-name="custom-icons-02" d="M316.871-31.004c-18.102 0-36.398 6.77-52.884 19.479-33.758 26.294-43.463 76.186-22.221 113.675l119.080 214.858h-132.631c-46.217 0-67.322 22.562-76.937 41.461-14.62 28.467-12.163 57.606 7.168 84.105l307.041 421.706c24.394 33.417 73.102 44.942 109.614 25.953 38.218-19.763 55.831-63.636 41.859-104.209l-71.589-209.306h225.212c34.691 0 66.867-21.982 80.065-54.613 13.244-32.768 5.302-69.814-20.207-94.447l-453.757-435.314c-15.747-15.053-36.955-23.347-59.813-23.347z" />
<glyph unicode="&#xe90e;" glyph-name="custom-icons-03" d="M312.604-18.204c-18.113 0-36.42 6.77-52.895 19.479-33.758 26.294-43.474 76.186-22.232 113.675l119.091 214.858h-132.631c-46.217 0-67.311 22.562-76.937 41.461-14.62 28.467-12.174 57.606 7.157 84.105l307.052 421.706c24.394 33.417 73.102 44.942 109.614 25.953 38.218-19.775 55.831-63.636 41.859-104.209l-71.589-209.306h225.212c34.691 0 66.867-21.982 80.065-54.613 13.244-32.768 5.302-69.814-20.207-94.447l-453.769-435.314c-15.747-15.053-36.944-23.347-59.79-23.347zM531.217 847.394c-6.77 0-13.244-3.288-17.226-8.784l-307.041-421.706c-5.359-7.35-4.756-10.058-1.764-15.94 1.968-3.925 8.249-5.791 18.739-5.791h243.507l-172.988-312.206c-5.404-9.569-2.844-23.745 5.291-30.083 5.495-4.221 10.354-5.746 12.868-5.746 4.21 0 10.16 0.887 14.609 5.154l453.655 435.257c6.178 5.985 8.146 14.916 4.961 22.812-3.334 8.294-11.184 13.778-19.524 13.778h-316.575l101.171 295.811c3.391 9.762-0.933 20.264-10.16 25.077-2.981 1.582-6.178 2.367-9.523 2.367z" />
<glyph unicode="&#xe90f;" glyph-name="custom-icons-04" d="M512 894.578c-251.346 0-455.111-203.765-455.111-455.111 0-120.718 47.957-236.442 133.291-321.82 85.356-85.333 201.125-133.291 321.82-133.291 120.718 0 236.442 47.957 321.82 133.291 85.333 85.379 133.291 201.102 133.291 321.82s-47.957 236.442-133.291 321.82c-85.379 85.333-201.102 133.291-321.82 133.291v0zM512 603.785c71.441-45.966 155.648-73.307 246.693-73.307 35.465 0 69.586 4.107 102.389 11.856 9.523-32.336 15.030-66.879 15.030-102.855 0-200.727-163.385-364.112-364.112-364.112-136.533 0-255.317 75.56-318.578 187.096l79.633 86.016v45.5c0 31.403 25.475 56.889 56.889 56.889 31.437 0 56.889-25.486 56.889-56.889v-45.5h125.167v255.306zM694.056 450.856c-31.46 0-56.889-25.486-56.889-56.889 0-31.46 25.429-56.889 56.889-56.889 31.403 0 56.889 25.429 56.889 56.889 0 31.403-25.486 56.889-56.889 56.889v0z" />
<glyph unicode="&#xe910;" glyph-name="custom-icons-05" d="M901.689 113.789v-83.922h-83.922l-318.566 318.566-318.555-318.566h-83.934v83.922l318.555 318.566-318.555 318.555v83.934h83.934l318.555-318.555 318.566 318.555h83.922v-83.934l-318.566-318.555z" />
<glyph unicode="&#xe911;" glyph-name="custom-icons-06" d="M729.52 282.704c-33.394 0-63.272-13.187-86.13-33.838l-313.39 182.386c2.185 10.081 3.959 20.207 3.959 30.777 0 10.559-1.764 20.673-3.959 30.766l309.862 180.668c23.734-21.982 54.943-35.624 89.657-35.624 72.806 0 131.868 59.051 131.868 131.846s-59.051 131.868-131.868 131.868c-72.784 0-131.857-59.062-131.857-131.868 0-10.559 1.752-20.685 3.959-30.777l-309.862-180.645c-23.734 21.97-54.932 35.624-89.668 35.624-72.818 0-131.857-59.062-131.857-131.857s59.028-131.868 131.857-131.868c34.736 0 65.934 13.642 89.668 35.624l312.946-182.409c-2.219-9.239-3.516-18.887-3.516-29.025 0-70.736 57.606-127.909 128.33-127.909 70.747 0 128.341 57.173 128.341 127.909 0 70.918-57.424 128.353-128.341 128.353v0z" />
<glyph unicode="&#xe912;" glyph-name="custom-icons-07" d="M388.073 830.578v-196.073c343.131-49.015 490.177-294.116 539.216-539.216-122.561 171.566-294.127 249.993-539.216 249.993v-200.977l-343.131 343.142 343.131 343.131z" />
<glyph unicode="&#xe913;" glyph-name="custom-icons-08" d="M385.707-12.8c-24.815 0-44.942 20.105-44.942 44.942v134.827h-179.769c-49.641 0-89.884 40.243-89.884 89.884v539.307c0 49.869 40.448 89.884 89.884 89.884h719.076c49.641 0 89.884-40.243 89.884-89.884v-539.307c0-49.641-40.243-89.884-89.884-89.884h-274.125l-166.298-166.73c-9-8.556-20.23-13.039-31.471-13.039v0h-22.471zM430.649 256.853v-138.433l138.433 138.433h310.989v539.307h-719.076v-539.307h269.653zM475.591 706.276h89.884v-134.827h134.827v-89.873h-134.827v-134.838h-89.884v134.827h-134.827v89.884h134.827v134.827z" />
<glyph unicode="&#xe914;" glyph-name="custom-icons-09" d="M586.149 453.689l-338.682-339.479 104.243-104.255 443.733 443.733-443.733 443.733-104.243-104.994z" />
<glyph unicode="&#xe915;" glyph-name="custom-icons-10" d="M405.572 442.311l338.671 339.49-104.243 104.243-443.733-443.733 443.733-443.733 104.243 104.994z" />
<glyph unicode="&#xe916;" glyph-name="custom-icons-01" d="M691.086 898.401c16.009-3.652 32.336-6.167 47.957-11.127 99.374-31.653 165.183-132.506 154.783-236.681-4.927-49.084-23.393-92.433-55.956-129.525-2.89-3.288-5.973-6.383-8.67-9.239-106.564 107.099-212.628 213.72-319.511 321.126 5.018 4.574 10.354 9.899 16.191 14.643 33.519 27.204 71.555 43.816 114.358 49.186 1.718 0.193 3.277 1.081 4.927 1.627h45.921zM459.799 498.674c11.833-11.913 24.86-25.008 37.763-37.99-12.8-12.868-25.657-25.759-37.979-38.116-12.572 12.72-25.498 25.793-37.683 38.093 12.004 12.060 25.145 25.236 37.899 38.013zM881.892 210.885c-30.47 75.878-103.799 119.023-184.172 108.954-49.664-6.258-92.308-28.308-128.307-62.009-24.212-22.687-45.557-48.583-67.675-73.5-40.027-45.102-83.217-86.3-137.432-113.983-33.803-17.271-69.063-28.513-107.85-22.608-44.772 6.758-69.962 42.758-59.551 86.38 7.498 31.391 26.715 55.33 50.745 77.79 7.054-7.817 13.71-15.269 20.036-22.3 17.533 10.729 34.111 20.070 49.846 30.686 48.617 32.768 96.768 66.264 145.362 99.078 60.826 41.074 121.833 81.795 182.955 122.482 3.391 2.264 7.999 3.197 12.174 3.63 20.423 2.048 41.119 2.48 61.315 5.882 22.335 3.766 43.145 12.846 61.622 24.155-102.605 103.071-204.993 205.847-307.416 308.736-1.138-2.025-2.833-4.779-4.312-7.646-18.295-35.385-26.499-73.023-25.702-112.89 0.125-5.951-1.946-12.868-5.222-17.863-64.046-97.143-128.444-194.037-192.751-291.021-18.728-28.228-37.444-56.513-57.708-87.086 6.656-5.313 13.232-10.547 20.207-16.088-4.005-3.743-6.633-6.121-9.114-8.624-21.891-21.993-39.913-46.592-50.972-75.913-29.821-78.894 9.307-153.828 90.533-173.34 7.669-1.798 15.508-3.049 23.256-4.574h31.801c4.847 0.899 9.682 1.923 14.541 2.697 49.015 8.203 91.91 30.379 131.868 58.891 49.892 35.612 91.375 79.895 129.957 127.226 27.227 33.348 59.017 61.19 99.931 76.572 74.513 28.035 144.68-6.133 165.41-80.6 10.98-39.367 5.871-77.904-7.179-115.86-1.206-3.55-2.389-7.111-3.914-11.639 19.137 0 37.023-0.159 54.943 0.239 1.957 0.080 4.961 2.97 5.586 5.12 16.088 53.282 18.352 106.473-2.81 159.027z" />
</font>
</defs>
</svg>
